<?xml version="1.0" encoding="UTF-8"?>
<svg id="Layer_2" data-name="Layer 2" xmlns="http://www.w3.org/2000/svg" viewBox="0 0 383.88 249.85">
  <defs>
    <style>
      .cls-1 {
        fill: #fff;
      }

      .cls-2 {
        fill: #f8c151;
      }

      .cls-3 {
        fill: #231f20;
      }

      .cls-4 {
        fill: #fefefe;
      }
    </style>
  </defs>
  <g id="Layer_2-2" data-name="Layer 2">
    <g>
      <path class="cls-3" d="M.02,81.45c2.33-4.36,4.49-8.87,9.27-11.22,1.42-.7,.34-1.34-.12-2-7.71-11.08-6.58-18.87,4.17-27.58,2.25-1.82-.14-2.3-.71-3.01-8.3-10.33-3.39-25.34,9.45-28.52,3.87-.96,7.71-.64,11.32,1.11,1.41,.68,1.93,.48,2.84-.91,7.32-11.24,19.55-12.42,29.13-2.85,24.92,24.88,49.8,49.79,74.7,74.69,.62,.62,1.23,1.24,1.86,1.85,3.61,3.55,7.32,3.99,10.14,1.22,2.82-2.78,2.47-6.67-1.02-10.17-6.78-6.82-13.69-13.5-20.36-20.43-8.79-9.14-8.96-23.14-.63-32.24,5.07-5.53,12.17-5.91,17.49-.66,10.4,10.25,20.65,20.67,31.04,30.94,2.76,2.73,3.02,5.54,1.12,8.74-4.22,2.5-6.01,2.31-9.49-1.16-9.42-9.39-18.81-18.8-28.21-28.19-3.16-3.16-3.65-3.09-5.55,.88-.31,.65-.44,1.4-.65,2.1-1.52,4.82,.03,8.84,3.4,12.26,6.39,6.48,12.75,12.99,19.33,19.28,4.62,4.41,7.07,9.53,6.7,15.94-1.18,7.42-5.11,12.71-12.37,14.96-7.26,2.26-13.45,.08-18.74-5.24-10.02-10.1-20.11-20.13-30.17-30.19-15.53-15.53-31.06-31.07-46.6-46.58-3.64-3.64-6.06-3.91-9.75-1.29-3.36,3.59-3.14,6.43,.91,10.5,18.33,18.35,36.65,36.71,55.04,54.99,2.6,2.58,3.75,5.19,2.08,8.65-4.23,3.24-6.21,3.13-10.01-.6-.71-.7-1.42-1.41-2.12-2.12-20.57-20.57-41.14-41.14-61.72-61.7-3.76-3.75-6.2-3.95-10.04-.97-2.96,3.86-2.74,6.23,1.05,10.03,21.17,21.19,42.32,42.39,63.56,63.49,2.71,2.7,3.87,5.4,2.18,8.98-4.26,3.1-6.2,2.95-10.03-.87-16.53-16.51-33.04-33.03-49.57-49.55-.97-.97-1.89-2.04-3.01-2.81-2.71-1.86-5.48-2.28-8.11,.26-3.29,3.57-3.14,6.37,.72,10.24,16.92,16.95,33.84,33.91,50.83,50.79,2.55,2.53,3.91,5.11,2.33,8.63-4.01,3.43-6.29,3.41-9.99-.28-12.74-12.7-25.44-25.45-38.19-38.15-3.83-3.82-6.36-4.11-10.08-1.38-3.2,3.72-3,6.33,.92,10.25,21.72,21.74,43.68,43.24,65.09,65.28,10.66,10.97,22.23,20.3,36.12,26.81,6.36,2.98,6.22,3.28,10.98-2.32,10.74-10.25,21.29-20.69,31.45-31.51,4.15-4.43,6.75-9.84,8.47-15.66,2.01-6.81,3.81-13.69,6.04-20.42,4.92-14.83,7.06-30.67,15.81-44.14,15.4-17.06,32.24-32.7,48.37-49.05,4.86-4.92,11.8-4.61,16.7,.28,8.8,8.79,9.02,23.14,.21,32.48-6.42,6.81-13.19,13.3-19.8,19.94-.88,.88-1.81,1.75-2.53,2.75-1.87,2.59-1.56,6.03,.62,8.21,2.19,2.2,5.61,2.5,8.2,.61,1.1-.8,2.05-1.82,3.02-2.79,25-24.98,49.99-49.98,75-74.96,10.28-10.27,21.42-9.3,29.83,2.59,.68,.96,1.03,1.21,2.3,.78,9.79-3.31,17.35-1.24,22.2,5.95,4.46,6.61,4.41,15.91-2.54,22.93-.08,.08-.1,.23-.25,.59,5.32,3.1,9.12,7.41,9.87,13.87,.61,5.25-.7,9.92-4.19,13.88-1.19,1.35-1.85,2.13,.3,3.24,4.32,2.23,6.22,6.49,8.25,10.59v9c-4.52,9-12.46,15.04-19.3,21.98-15.96,16.19-32.41,31.9-48.11,48.34-14.32,15-30.45,27.28-49.15,36.19-18.83,8.97-35.33,21.02-49.3,36.54-2.59,2.87-5.45,5.5-8.2,8.23-10.94,10.85-24.72,10.74-35.8-.11-9.45-9.26-18.21-19.24-28.69-27.43-12.18-9.51-26.18-15.95-39.72-23.09-11.17-5.89-21.05-13.14-29.89-22.17-20.01-20.44-40.41-40.5-60.6-60.76-5.49-5.51-11.67-10.45-15.12-17.72v-9l.02-.04h0Zm254.18,5.94l-.82,.63c-1.19,1.09-2.41,2.14-3.57,3.27-7.91,7.75-18.81,8.06-26.02,.71-7.06-7.2-6.63-17.98,1.07-25.73,6.6-6.65,13.28-13.21,19.84-19.89,3.32-3.38,5.21-7.29,3.48-12.18-.11-2.26-1.07-4.56-2.94-5.28-1.84-.71-2.86,1.82-4.08,3.03-12.58,12.47-25.04,25.07-37.63,37.52-5.99,5.93-10.12,12.82-12.44,20.94-4.28,14.95-8.93,29.8-13.14,44.77-2.95,10.47-8.23,19.38-15.99,26.97-10.07,9.85-19.96,19.87-30.05,29.93,2,1.45,3.91,2.56,6.02,3.33,4.32,2.95,8.75,5.75,12.95,8.87,11.5,8.53,20.83,19.39,31.04,29.31,6.8,6.6,13.49,6.62,20.27-.08,8-7.9,15.85-15.96,24.09-23.61,11.29-10.49,25.04-17.23,38.53-24.3,12.21-6.4,24.05-13.34,33.89-23.15,23.63-23.55,47.21-47.15,70.79-70.75,.7-.7,1.41-1.45,1.91-2.29,1.68-2.84,1.99-5.62-.76-8.07-3.74-2.86-6.12-2.7-9.7,.87-12.79,12.75-25.6,25.49-38.29,38.34-2.69,2.72-5.41,3.81-8.97,2.09-2.98-4.29-2.81-6.25,.96-10.03,15.76-15.77,31.53-31.53,47.28-47.3,1.67-1.67,3.46-3.27,4.91-5.12,2.15-2.75,2.38-5.65-.24-8.37-3.56-3.13-6.41-2.9-10.26,.95-16.93,16.9-33.86,33.8-50.72,50.77-2.55,2.57-5.15,3.83-8.63,2.19-3.38-3.99-3.33-6.21,.41-9.96,9.86-9.9,19.76-19.76,29.64-29.64,11.47-11.47,22.95-22.93,34.39-34.42,3.59-3.61,3.75-5.96,.85-9.71-3.75-3.15-6.26-2.91-10.26,1.09-21.2,21.18-42.41,42.35-63.55,63.59-2.59,2.6-5.21,3.76-8.65,1.99-3.19-4.07-3.13-6.1,.42-9.69,4.65-4.7,9.35-9.36,14.03-14.04,13.86-13.86,27.73-27.7,41.56-41.58,3.75-3.76,3.9-6.17,.85-10-3.71-2.87-6.28-2.61-10.01,1.11-23.67,23.64-47.32,47.3-70.97,70.96-.59,.6-1.04,1.34-1.56,2.01l.06-.03v-.02h0Z"/>
      <path class="cls-2" d="M188.35,69.56c-8.75,13.46-10.88,29.31-15.81,44.14-2.24,6.73-4.03,13.61-6.04,20.42-1.72,5.82-4.32,11.23-8.47,15.66-10.16,10.82-20.71,21.27-31.45,31.51-10.26-4.86-20.46-10.01-29.24-17.19-12.95-10.59-24-23.25-35.87-35.01-16.05-15.89-32-31.87-47.99-47.82,3.72-2.73,6.25-2.43,10.08,1.38,12.74,12.7,25.44,25.45,38.19,38.15,3.7,3.69,5.98,3.7,9.99,.28,3.14,.67,5.54-.56,6.73-3.37,1.18-2.79,.22-5.28-1.96-7.44-7.46-7.36-14.85-14.79-22.25-22.22-12.14-12.2-24.27-24.42-36.4-36.63,2.62-2.54,5.39-2.12,8.11-.26,1.12,.77,2.04,1.84,3.01,2.81,16.53,16.51,33.04,33.04,49.57,49.55,3.83,3.82,5.77,3.97,10.03,.88,3.17,.43,5.77-.48,7.06-3.56,1.29-3.06-.04-5.43-2.28-7.65-15.3-15.21-30.53-30.5-45.81-45.74-8.56-8.54-17.18-17.03-25.77-25.55,3.84-2.98,6.28-2.78,10.04,.97,20.58,20.56,41.15,41.13,61.72,61.7,.71,.71,1.41,1.42,2.12,2.12,3.8,3.73,5.77,3.85,10.01,.6,3.22,.51,5.68-.54,7.02-3.61,1.29-2.98,0-5.28-2.09-7.37-9.29-9.26-18.57-18.53-27.83-27.82-11.72-11.77-23.43-23.55-35.14-35.33,3.68-2.63,6.1-2.35,9.75,1.29,15.55,15.52,31.07,31.05,46.6,46.58,10.06,10.06,20.15,20.09,30.17,30.19,5.28,5.32,11.48,7.49,18.74,5.24,7.26-2.26,11.19-7.54,12.37-14.97,3.72-6.22,3.38-14.47-1.68-19.76-9.04-9.44-18.48-18.49-27.75-27.71,.21-.7,.34-1.44,.65-2.1,1.9-3.96,2.39-4.03,5.55-.88,9.41,9.4,18.8,18.81,28.21,28.19,3.48,3.47,5.27,3.66,9.49,1.16,2.88,3.05,5.76,6.11,8.64,9.16h-.02Z"/>
      <path class="cls-2" d="M366.6,51.8c2.61,2.72,2.39,5.62,.24,8.37-1.45,1.85-3.23,3.45-4.91,5.12-15.76,15.77-31.53,31.53-47.28,47.3-3.78,3.78-3.95,5.74-.97,10.03-.44,3.11,.81,5.39,3.55,6.76,2.75,1.37,5.12,.36,7.11-1.63,15.44-15.46,30.87-30.95,46.3-46.42,2.75,2.46,2.43,5.23,.76,8.07-.5,.85-1.21,1.59-1.91,2.29-23.59,23.59-47.16,47.2-70.79,70.75-9.85,9.81-21.68,16.75-33.89,23.15-13.49,7.07-27.24,13.82-38.53,24.3-8.24,7.65-16.09,15.71-24.09,23.61-6.79,6.7-13.48,6.68-20.27,.08-10.21-9.91-19.54-20.77-31.04-29.31-4.2-3.11-8.63-5.92-12.95-8.87,10.11-10.18,20.2-20.38,30.33-30.54,6.91-6.93,11.96-15.02,14.79-24.38,4.82-15.97,9.51-31.99,14.18-48.01,1.7-5.83,4.03-11.39,8.31-15.72,14.12-14.28,28.42-28.39,42.66-42.56,1.73,4.88-.16,8.8-3.48,12.18-6.56,6.68-13.24,13.24-19.84,19.89-7.7,7.75-8.13,18.54-1.07,25.73,7.21,7.35,18.11,7.05,26.02-.71,1.15-1.13,2.38-2.18,3.57-3.27,.27-.21,.54-.42,.82-.63l-.06,.03c6.53-.14,11.77-3.41,16.12-7.71,22.25-22.01,44.3-44.23,66.42-66.37,3.04,3.83,2.89,6.24-.85,10-13.83,13.88-27.7,27.72-41.56,41.58-4.68,4.68-9.37,9.34-14.03,14.04-3.56,3.59-3.62,5.62-.43,9.69-.64,3.14,.56,5.56,3.39,6.75,2.77,1.17,5.24,.27,7.44-1.94,11.43-11.54,22.94-23.01,34.44-34.47,12.39-12.35,24.8-24.67,37.2-37,2.9,3.75,2.74,6.11-.85,9.71-11.44,11.49-22.92,22.95-34.39,34.42-9.88,9.88-19.78,19.74-29.64,29.64-3.74,3.75-3.79,5.97-.41,9.96-.49,2.92,.49,5.14,3.15,6.52,2.75,1.43,5.11,.44,7.17-1.41,2.03-1.83,3.91-3.83,5.85-5.77,17.82-17.75,35.63-35.49,53.45-53.24h-.03Z"/>
      <path class="cls-1" d="M248.19,34.19c-14.23,14.17-28.53,28.28-42.66,42.56-4.28,4.33-6.61,9.89-8.31,15.72-4.67,16.02-9.35,32.04-14.18,48.01-2.83,9.36-7.88,17.45-14.79,24.38-10.13,10.16-20.22,20.36-30.33,30.54-2.1-.77-4.01-1.87-6.02-3.33,10.09-10.06,19.98-20.08,30.05-29.93,7.76-7.59,13.04-16.5,15.99-26.97,4.22-14.97,8.86-29.82,13.14-44.77,2.33-8.12,6.45-15.01,12.44-20.94,12.59-12.46,25.05-25.05,37.63-37.52,1.22-1.21,2.24-3.74,4.08-3.03,1.87,.72,2.83,3.01,2.94,5.28,0,0,.02,0,.02,0Z"/>
      <path class="cls-1" d="M13.46,81.27c15.99,15.94,31.95,31.93,47.99,47.82,11.88,11.76,22.92,24.42,35.87,35.01,8.78,7.18,18.98,12.33,29.24,17.19-4.77,5.6-4.62,5.3-10.98,2.32-13.89-6.5-25.46-15.83-36.12-26.81-21.41-22.04-43.37-43.54-65.09-65.28-3.92-3.92-4.12-6.53-.92-10.25h0Z"/>
      <path class="cls-1" d="M21.76,21.89c8.59,8.51,17.2,17,25.77,25.55,15.28,15.24,30.5,30.53,45.81,45.74,2.23,2.22,3.56,4.59,2.28,7.65-1.29,3.08-3.89,4-7.06,3.56,1.69-3.58,.53-6.28-2.18-8.98-21.24-21.11-42.4-42.31-63.56-63.49-3.79-3.8-4.01-6.17-1.05-10.03,0,0,0,0,0,0Z"/>
      <path class="cls-1" d="M362.28,21.98c-12.4,12.33-24.81,24.65-37.2,37-11.5,11.47-23.01,22.93-34.44,34.47-2.19,2.21-4.67,3.11-7.44,1.94-2.83-1.19-4.03-3.61-3.39-6.75,3.45,1.77,6.06,.61,8.65-1.99,21.14-21.24,42.35-42.41,63.55-63.59,4-4,6.51-4.24,10.26-1.09h.01Z"/>
      <path class="cls-1" d="M47.61,13.15c11.71,11.78,23.41,23.57,35.14,35.33,9.26,9.29,18.54,18.56,27.83,27.82,2.1,2.09,3.39,4.39,2.09,7.37-1.33,3.07-3.79,4.12-7.02,3.61,1.66-3.45,.51-6.07-2.08-8.65-18.4-18.28-36.71-36.64-55.04-54.99-4.06-4.06-4.28-6.91-.91-10.5h0Z"/>
      <path class="cls-1" d="M336.67,13.34c-22.12,22.14-44.17,44.36-66.42,66.37-4.35,4.3-9.59,7.57-16.12,7.71,.52-.67,.96-1.42,1.56-2.01,23.65-23.66,47.3-47.32,70.97-70.96,3.73-3.72,6.3-3.98,10.01-1.11Z"/>
      <path class="cls-1" d="M366.6,51.8c-17.82,17.75-35.63,35.5-53.45,53.24-1.94,1.93-3.82,3.94-5.85,5.77-2.06,1.85-4.42,2.85-7.17,1.41-2.66-1.38-3.64-3.6-3.15-6.52,3.48,1.64,6.08,.39,8.63-2.19,16.86-16.97,33.79-33.87,50.72-50.77,3.85-3.85,6.7-4.08,10.26-.95h.01Z"/>
      <path class="cls-1" d="M17.84,51.42c12.13,12.21,24.26,24.43,36.4,36.63,7.39,7.43,14.79,14.85,22.25,22.22,2.18,2.16,3.15,4.65,1.96,7.44-1.2,2.82-3.59,4.04-6.73,3.37,1.58-3.52,.22-6.1-2.33-8.63-16.99-16.88-33.91-33.83-50.83-50.79-3.86-3.86-4.01-6.67-.72-10.24h0Z"/>
      <path class="cls-1" d="M370.64,81.32c-15.43,15.48-30.85,30.96-46.3,46.42-2,2-4.36,3.01-7.11,1.63-2.74-1.37-4-3.65-3.55-6.76,3.56,1.72,6.28,.63,8.97-2.09,12.69-12.85,25.5-25.59,38.29-38.34,3.58-3.57,5.96-3.73,9.7-.87h0Z"/>
      <path class="cls-1" d="M135.81,34.02c9.27,9.21,18.72,18.27,27.75,27.71,5.06,5.29,5.4,13.54,1.68,19.76,.37-6.41-2.08-11.52-6.7-15.94-6.58-6.28-12.94-12.8-19.33-19.28-3.37-3.42-4.92-7.44-3.4-12.26h0Z"/>
      <path class="cls-4" d="M254.2,87.39c-.27,.21-.54,.42-.82,.63,.27-.21,.54-.42,.82-.63Z"/>
    </g>
  </g>
</svg>